<!DOCTYPE svg PUBLIC "-//W3C//DTD SVG 1.1//EN" "http://www.w3.org/Graphics/SVG/1.1/DTD/svg11.dtd">
<!-- Uploaded to: SVG Repo, www.svgrepo.com, Transformed by: SVG Repo Mixer Tools -->
<svg width="64px" height="64px" viewBox="0 0 17 17" version="1.1" xmlns="http://www.w3.org/2000/svg" xmlns:xlink="http://www.w3.org/1999/xlink" fill="#ffffff" stroke="#ffffff" stroke-width="0.00017">
<g id="SVGRepo_bgCarrier" stroke-width="0"/>
<g id="SVGRepo_tracerCarrier" stroke-linecap="round" stroke-linejoin="round"/>
<g id="SVGRepo_iconCarrier"> <path d="M5 0v4h12v-4h-12zM16 3h-10v-2h10v2zM5 10h12v-4h-12v4zM6 7h10v2h-10v-2zM5 16h12v-4h-12v4zM6 13h10v2h-10v-2zM0 4h4v-4h-4v4zM1 1h2v2h-2v-2zM0 10h4v-4h-4v4zM1 7h2v2h-2v-2zM0 16h4v-4h-4v4zM1 13h2v2h-2v-2z" fill="#ffffff"/> </g>
</svg>