<!DOCTYPE svg PUBLIC "-//W3C//DTD SVG 1.1//EN" "http://www.w3.org/Graphics/SVG/1.1/DTD/svg11.dtd">
<!-- Uploaded to: SVG Repo, www.svgrepo.com, Transformed by: SVG Repo Mixer Tools -->
<svg version="1.1" id="Uploaded to svgrepo.com" xmlns="http://www.w3.org/2000/svg" xmlns:xlink="http://www.w3.org/1999/xlink" width="64px" height="64px" viewBox="0 0 32 32" xml:space="preserve" fill="#ffffff">
<g id="SVGRepo_bgCarrier" stroke-width="0"/>
<g id="SVGRepo_tracerCarrier" stroke-linecap="round" stroke-linejoin="round"/>
<g id="SVGRepo_iconCarrier"> <style type="text/css"> .stone_een{fill:#ffffff;} .st0{fill:#ffffff;} </style> <path class="stone_een" d="M19,20.5c0,1.933-1.567,3.5-3.5,3.5S12,22.433,12,20.5s1.567-3.5,3.5-3.5S19,18.567,19,20.5z M16,16.051 V5.5C16,5.224,15.776,5,15.5,5S15,5.224,15,5.5v10.551C15.166,16.032,15.329,16,15.5,16S15.834,16.032,16,16.051z M15,24.949V26.5 c0,0.276,0.224,0.5,0.5,0.5s0.5-0.224,0.5-0.5v-1.551C15.834,24.968,15.671,25,15.5,25S15.166,24.968,15,24.949z M24,18.949V26.5 c0,0.276,0.224,0.5,0.5,0.5s0.5-0.224,0.5-0.5v-7.551C24.834,18.968,24.671,19,24.5,19S24.166,18.968,24,18.949z M25,10.051V5.5 C25,5.224,24.776,5,24.5,5S24,5.224,24,5.5v4.551C24.166,10.032,24.329,10,24.5,10S24.834,10.032,25,10.051z M7,7.051V5.5 C7,5.224,6.776,5,6.5,5S6,5.224,6,5.5v1.551C6.166,7.032,6.329,7,6.5,7S6.834,7.032,7,7.051z M6,15.949V26.5 C6,26.776,6.224,27,6.5,27S7,26.776,7,26.5V15.949C6.834,15.968,6.671,16,6.5,16S6.166,15.968,6,15.949z M6.5,8 C4.567,8,3,9.567,3,11.5S4.567,15,6.5,15s3.5-1.567,3.5-3.5S8.433,8,6.5,8z M24.5,11c-1.933,0-3.5,1.567-3.5,3.5s1.567,3.5,3.5,3.5 s3.5-1.567,3.5-3.5S26.433,11,24.5,11z"/> </g>
</svg>