<!DOCTYPE svg PUBLIC "-//W3C//DTD SVG 1.1//EN" "http://www.w3.org/Graphics/SVG/1.1/DTD/svg11.dtd">
<!-- Uploaded to: SVG Repo, www.svgrepo.com, Transformed by: SVG Repo Mixer Tools -->
<svg fill="#ffffff" height="64px" width="64px" version="1.2" baseProfile="tiny" id="Layer_1" xmlns="http://www.w3.org/2000/svg" xmlns:xlink="http://www.w3.org/1999/xlink" viewBox="0 0 256 256" xml:space="preserve" transform="matrix(1, 0, 0, 1, 0, 0)" stroke="#ffffff">
<g id="SVGRepo_bgCarrier" stroke-width="0"/>
<g id="SVGRepo_tracerCarrier" stroke-linecap="round" stroke-linejoin="round"/>
<g id="SVGRepo_iconCarrier"> <path d="M77.3,43.8C61.9,38,29.6,33.2,11.8,33.5l1.1-15c20.7-0.2,57.6,5.5,74.5,13.3L77.3,43.8z M194.9,30.1l49.7,187.3l-138.8,36.9 l-49.8-186L77.6,44c2.1,0.8,4.2,1.6,6.3,2.5c13.2,5.5,23.7,12.2,30.6,19.3c-3.8,5.5-5.3,12.5-3.5,19.5c3.3,12.5,16.2,20,28.7,16.6 c12.5-3.3,20-16.2,16.6-28.7c-3.3-12.5-16.2-20-28.7-16.6c-0.3,0.1-0.6,0.2-0.8,0.2c-9.6-10.6-24-19.2-39.1-25.2l25.5-28.9 L194.9,30.1z M191.2,179.5c-4.4-16.5-23.2-16.5-31.4-16.6c-15.4-0.2-18-5-18.6-7.8c-1.2-6.6,5.5-10.1,12.4-10.4 c5.5-0.2,11.6,1.4,15.2,2.9l6.5-13.5c-5.5-1.9-12.5-4.5-21.6-3.8l-2.9-10.7l-13.8,3.7l2.7,10.3c-13,4.6-19.7,15.3-16.6,26.8 c3,11.2,12.5,14.3,21.7,16.1c7.6,1.4,27.4-0.2,28.6,8.6c0.7,4.8-3.4,9.5-11.8,10.7c-7.3,1-16.5-2.9-16.5-2.9l-7.6,13.1 c7.6,3.4,15.1,4.8,22.7,4.3l2.7,10.1l13.8-3.7l-2.5-9.6C186.9,202,194.2,190.5,191.2,179.5z"/> </g>
</svg>