<!DOCTYPE svg PUBLIC "-//W3C//DTD SVG 1.1//EN" "http://www.w3.org/Graphics/SVG/1.1/DTD/svg11.dtd">
<!-- Uploaded to: SVG Repo, www.svgrepo.com, Transformed by: SVG Repo Mixer Tools -->
<svg width="64px" height="64px" viewBox="0 0 16 16" xmlns="http://www.w3.org/2000/svg" fill="#ffb300">
<g id="SVGRepo_bgCarrier" stroke-width="0"/>
<g id="SVGRepo_tracerCarrier" stroke-linecap="round" stroke-linejoin="round" stroke="#ffb300" stroke-width="0.096"/>
<g id="SVGRepo_iconCarrier">
<path fill-rule="evenodd" clip-rule="evenodd" d="M6 5.914l2.06-2.06v-.708L5.915 1l-.707.707.043.043.25.25 1 1h-3a2.5 2.5 0 0 0 0 5H4V7h-.5a1.5 1.5 0 1 1 0-3h3L5.207 5.293 5.914 6 6 5.914zM11 2H8.328l-1-1H12l.71.29 3 3L16 5v9l-1 1H6l-1-1V6.5l1 .847V14h9V6h-4V2zm1 0v3h3l-3-3z"/>
</g>
</svg>