<!DOCTYPE svg PUBLIC "-//W3C//DTD SVG 1.1//EN" "http://www.w3.org/Graphics/SVG/1.1/DTD/svg11.dtd">
<!-- Uploaded to: SVG Repo, www.svgrepo.com, Transformed by: SVG Repo Mixer Tools -->
<svg fill="#ff7300" height="64px" width="64px" version="1.1" id="Icons" xmlns="http://www.w3.org/2000/svg" xmlns:xlink="http://www.w3.org/1999/xlink" viewBox="0 0 32 32" xml:space="preserve" stroke="#ff7300">
<g id="SVGRepo_bgCarrier" stroke-width="0"/>
<g id="SVGRepo_tracerCarrier" stroke-linecap="round" stroke-linejoin="round"/>
<g id="SVGRepo_iconCarrier"> <path d="M16,5c0.6,0,1-0.4,1-1V2c0-0.6-0.4-1-1-1s-1,0.4-1,1v2C15,4.6,15.4,5,16,5z"/> <path d="M8.6,6.2c0.2,0.3,0.5,0.5,0.9,0.5c0.2,0,0.3,0,0.5-0.1c0.5-0.3,0.6-0.9,0.4-1.4l-1-1.7C9.1,3,8.5,2.9,8,3.1 C7.5,3.4,7.4,4,7.6,4.5L8.6,6.2z"/> <path d="M4.7,11.5c0.3,0,0.7-0.2,0.9-0.5c0.3-0.5,0.1-1.1-0.4-1.4l-1.7-1C3,8.4,2.4,8.5,2.1,9C1.9,9.5,2,10.1,2.5,10.4l1.7,1 C4.4,11.5,4.6,11.5,4.7,11.5z"/> <path d="M29.9,9c-0.3-0.5-0.9-0.6-1.4-0.4l-1.7,1c-0.5,0.3-0.6,0.9-0.4,1.4c0.2,0.3,0.5,0.5,0.9,0.5c0.2,0,0.3,0,0.5-0.1l1.7-1 C30,10.1,30.1,9.5,29.9,9z"/> <path d="M22,6.6c0.2,0.1,0.3,0.1,0.5,0.1c0.3,0,0.7-0.2,0.9-0.5l1-1.7C24.6,4,24.5,3.4,24,3.1c-0.5-0.3-1.1-0.1-1.4,0.4l-1,1.7 C21.4,5.7,21.5,6.3,22,6.6z"/> <g> <path d="M25.5,22l-1.9-9.9C23.2,9.7,21.1,8,18.7,8h-5.4c-2.4,0-4.5,1.7-4.9,4.1L6.5,22H25.5z M18.8,12c0.5-0.1,1.1,0.2,1.2,0.8 l0.5,2.5c0.1,0.5-0.2,1.1-0.8,1.2c-0.1,0-0.1,0-0.2,0c-0.5,0-0.9-0.3-1-0.8L18,13.2C17.9,12.7,18.3,12.1,18.8,12z"/> <path d="M27.2,24h-1.4H6.2H4.8c-0.3,0-0.6,0.2-0.8,0.4c-1.3,1.9-1.3,4.3,0,6.1C4.1,30.8,4.5,31,4.8,31h22.4c0.3,0,0.6-0.2,0.8-0.4 c1.3-1.9,1.3-4.3,0-6.1C27.9,24.2,27.5,24,27.2,24z"/> </g> </g>
</svg>