<!DOCTYPE svg PUBLIC "-//W3C//DTD SVG 1.1//EN" "http://www.w3.org/Graphics/SVG/1.1/DTD/svg11.dtd">
<!-- Uploaded to: SVG Repo, www.svgrepo.com, Transformed by: SVG Repo Mixer Tools -->
<svg fill="#fbc50c" width="64px" height="64px" viewBox="0 0 256 256" id="Flat" xmlns="http://www.w3.org/2000/svg">
<g id="SVGRepo_bgCarrier" stroke-width="0"/>
<g id="SVGRepo_tracerCarrier" stroke-linecap="round" stroke-linejoin="round"/>
<g id="SVGRepo_iconCarrier"> <g opacity="0.2"> <polygon points="32 136 128 232 224 136 176 136 176 104 80 104 80 136 32 136"/> </g> <path d="M231.39111,132.93848A8.00015,8.00015,0,0,0,224,128H184V104a8.00008,8.00008,0,0,0-8-8H80a8.00008,8.00008,0,0,0-8,8v24H32a8.0001,8.0001,0,0,0-5.65674,13.65723l96,96a8.00063,8.00063,0,0,0,11.31348,0l96-96A8.00061,8.00061,0,0,0,231.39111,132.93848ZM128,220.68652,51.314,144H80a8.00008,8.00008,0,0,0,8-8V112h80v24a8.00008,8.00008,0,0,0,8,8h28.686ZM72,40a8.00008,8.00008,0,0,1,8-8h96a8,8,0,0,1,0,16H80A8.00008,8.00008,0,0,1,72,40Zm0,32a8.00008,8.00008,0,0,1,8-8h96a8,8,0,0,1,0,16H80A8.00008,8.00008,0,0,1,72,72Z"/> </g>
</svg>